#N canvas 222 407 1385 878 10;
#X obj 255 376 vline~;
#X obj 240 440 *~;
#X msg 63 214 0 0;
#X obj 68 30 bng 15 250 50 0 empty empty empty 17 7 0 10 -262144 -1
-1;
#X obj 255 404 *~;
#X obj 169 370 sig~;
#X obj 170 413 osc~;
#X obj 93 252 line 0 10;
#X obj 94 120 del 1;
#X msg 548 316 0 0 0;
#X obj 255 350 spigot;
#X floatatom 50 369 5 0 0 0 - - -, f 5;
#X obj 92 423 bng 15 250 50 0 empty empty empty 17 7 0 10 -262144 -1
-1;
#X obj 241 485 dac~;
#X obj 488 304 1;
#X obj 258 36 inlet;
#X obj 103 456 0;
#X msg 255 287 0.4 3000 0 \, 0.1 50 1000;
#X obj 92 370 sel 2000;
#X msg 93 148 1 2000;
#X obj 92 310 + 2000;
#X obj 93 283 * 2500;
#X obj 315 90 tgl 15 0 empty empty empty 17 7 0 10 -262144 -1 -1 0
1;
#X text 353 85 To control charge sound from outside;
#X text 351 31 comment;
#X connect 0 0 4 0;
#X connect 0 0 4 1;
#X connect 1 0 13 0;
#X connect 1 0 13 1;
#X connect 2 0 7 0;
#X connect 3 0 2 0;
#X connect 3 0 8 0;
#X connect 3 0 17 0;
#X connect 4 0 1 1;
#X connect 5 0 6 0;
#X connect 6 0 1 0;
#X connect 7 0 21 0;
#X connect 8 0 19 0;
#X connect 9 0 0 0;
#X connect 10 0 0 0;
#X connect 12 0 16 0;
#X connect 14 0 10 1;
#X connect 14 0 9 0;
#X connect 14 0 3 0;
#X connect 15 0 22 0;
#X connect 16 0 1 1;
#X connect 16 0 4 0;
#X connect 17 0 10 0;
#X connect 18 0 12 0;
#X connect 19 0 7 0;
#X connect 20 0 5 0;
#X connect 20 0 11 0;
#X connect 20 0 18 0;
#X connect 21 0 20 0;
#X connect 22 0 14 0;
