#N canvas 415 53 1367 963 10;
#X obj 162 625 phasor~;
#X obj 157 798 *~;
#X obj 157 778 *~;
#X obj 886 116 hsl 64 12 0 1 0 1 brush-level empty brush-level 5 6
1 8 -262144 -1 -1 1100 1;
#X obj 888 139 hsl 64 12 0 1 0 1 rotor-level empty rotor-level 5 6
1 8 -262144 -1 -1 4000 1;
#X obj 155 589 *~;
#X obj 225 261 f;
#X obj 661 172 bng 15 250 50 0 go empty empty 20 6 1 8 -262144 -1 -1
;
#X obj 298 271 * 20000;
#X obj 403 536 * -2000;
#N canvas 1032 191 568 587 rotor 0;
#X obj 117 227 *~;
#X obj 117 67 *~;
#X obj 117 135 +~;
#X obj 134 182 *~;
#X obj 133 110 sig~ 0.2;
#X obj 117 0 noise~;
#X obj 133 87 r rotor-level;
#X obj 117 22 bp~ 4000 1;
#X obj 133 204 *~;
#X obj 134 157 inlet~ drive;
#X obj 117 272 outlet~;
#X obj 150 48 r brush-level;
#X connect 0 0 10 0;
#X connect 1 0 2 0;
#X connect 2 0 0 0;
#X connect 3 0 8 0;
#X connect 3 0 8 1;
#X connect 4 0 2 1;
#X connect 5 0 7 0;
#X connect 6 0 4 0;
#X connect 7 0 1 0;
#X connect 8 0 0 1;
#X connect 9 0 3 0;
#X connect 9 0 3 1;
#X connect 11 0 1 1;
#X restore 171 692 pd rotor;
#N canvas 541 50 203 345 stator 0;
#X obj -1 96 sig~ 1;
#X obj 31 150 /~;
#X obj 47 123 +~ 1;
#X obj 47 96 *~;
#X obj 47 68 cos~;
#N canvas 0 50 450 300 grapha 0;
#X obj 100 100 cnv 15 100 100 empty empty empty 20 12 0 14 -262144
-66577 0;
#N canvas 0 50 450 300 (subpatch) 0;
#X array C 100 float 0;
#X coords 0 1 99 -1 100 100 1;
#X restore 100 100 graph;
#X obj 289 155 inlet~;
#X obj 210 156 r b;
#X obj 210 182 tabwrite~ C;
#X connect 2 0 4 0;
#X connect 3 0 4 0;
#X coords 0 -1 1 1 100 100 1 100 100;
#X restore 98 239 pd grapha;
#X obj 47 46 wrap~;
#X obj 30 172 -~ 0.5;
#X obj 47 22 *~ 2;
#X obj 48 -2 inlet~ drive;
#X obj 31 249 outlet~;
#X obj 31 222 *~;
#X obj 47 198 r stator-level;
#X connect 0 0 1 0;
#X connect 1 0 7 0;
#X connect 2 0 1 1;
#X connect 3 0 2 0;
#X connect 4 0 3 0;
#X connect 4 0 3 1;
#X connect 6 0 4 0;
#X connect 7 0 5 0;
#X connect 7 0 11 0;
#X connect 8 0 6 0;
#X connect 9 0 8 0;
#X connect 11 0 10 0;
#X connect 12 0 11 1;
#X restore 230 695 pd stator;
#X obj 208 723 +~;
#X obj 888 167 hsl 64 12 0 1 0 1 stator-level empty stator-level 4
6 1 8 -262144 -1 -1 3900 1;
#X obj 207 750 +~;
#N canvas 1008 224 378 353 tube 0;
#X obj 0 98 cos~;
#X obj 0 76 +~;
#X obj 0 46 *~;
#X obj 100 0 inlet~ drive;
#X obj 0 164 outlet~;
#X obj 0 0 inlet~ amount;
#X obj 17 20 osc~ 178;
#X obj 0 120 hip~ 180;
#X obj 0 142 hip~ 180;
#X connect 0 0 7 0;
#X connect 1 0 0 0;
#X connect 2 0 1 0;
#X connect 3 0 1 1;
#X connect 5 0 2 0;
#X connect 6 0 2 1;
#X connect 7 0 8 0;
#X connect 8 0 4 0;
#X restore 298 694 pd tube;
#X obj 298 733 *~;
#X obj 58 444 pow~;
#X obj 224 342 *~ 2;
#X obj 15 383 sig~ 1;
#X obj 39 415 -~;
#X obj 229 408 -~ 1;
#X obj 138 389 min~ 1;
#X obj 226 377 max~ 1;
#X obj 224 320 vline~;
#X msg 224 298 0 \, 1 \$1 0;
#X obj 85 475 +~;
#X obj 107 503 *~ -1;
#X obj 134 533 +~ 1;
#X obj 139 421 sig~ 100;
#X obj 181 450 pow~;
#X obj 230 431 sig~ 10;
#X obj 502 466 0.2;
#X obj 369 242 0.1;
#X obj 527 721 0.3;
#X obj 536 567 0.15;
#X text 560 719 Volume;
#X text 576 568 tube res;
#X text 437 468 max speed;
#X text 397 237 run duration;
#X floatatom 709 521 5 0 0 0 - - -, f 5;
#X obj 813 522 f 550;
#X text 804 807 To send printer animate osc value;
#X obj 660 113 inlet;
#X obj 159 872 outlet~;
#X obj 709 791 outlet;
#X obj 813 788 outlet;
#X obj 709 395 delay 3000;
#X obj 813 396 delay 200;
#X obj 1000 352 r paper_count;
#X obj 1000 409 - 1;
#X floatatom 1000 440 5 0 0 0 - - -, f 5;
#X obj 882 486 s papers;
#X obj 882 454 f 5;
#X obj 1000 482 == 0;
#X obj 1000 585 print Reload paper please;
#X obj 1000 540 spigot;
#X text 963 313 Decreasing paper count on every shoot and writing new
value to the slider on print time;
#X text 881 71 Controlling printer parameters;
#X text 607 812 Stopping printing animation;
#X text 18 181 Standar DC motor example have been used to design printer
sound effect;
#X text 365 111 Seymur Mammadli;
#X connect 0 0 10 0;
#X connect 0 0 11 0;
#X connect 0 0 15 0;
#X connect 1 0 44 0;
#X connect 2 0 1 0;
#X connect 5 0 0 0;
#X connect 6 0 25 0;
#X connect 7 0 6 0;
#X connect 7 0 33 0;
#X connect 7 0 32 0;
#X connect 7 0 34 0;
#X connect 7 0 35 0;
#X connect 7 0 47 0;
#X connect 7 0 48 0;
#X connect 8 0 6 1;
#X connect 9 0 5 1;
#X connect 10 0 12 0;
#X connect 11 0 12 1;
#X connect 12 0 14 0;
#X connect 14 0 2 1;
#X connect 15 0 16 0;
#X connect 16 0 14 1;
#X connect 17 0 26 0;
#X connect 18 0 22 0;
#X connect 18 0 23 0;
#X connect 19 0 20 0;
#X connect 20 0 17 0;
#X connect 21 0 30 0;
#X connect 22 0 20 1;
#X connect 23 0 21 0;
#X connect 24 0 18 0;
#X connect 25 0 24 0;
#X connect 26 0 27 0;
#X connect 27 0 28 0;
#X connect 28 0 2 0;
#X connect 28 0 5 0;
#X connect 28 0 15 1;
#X connect 29 0 17 1;
#X connect 30 0 26 1;
#X connect 31 0 30 1;
#X connect 32 0 9 0;
#X connect 33 0 8 0;
#X connect 34 0 1 1;
#X connect 35 0 16 1;
#X connect 40 0 45 0;
#X connect 41 0 46 0;
#X connect 43 0 7 0;
#X connect 47 0 40 0;
#X connect 48 0 41 0;
#X connect 48 0 53 0;
#X connect 49 0 50 0;
#X connect 50 0 51 0;
#X connect 51 0 53 1;
#X connect 51 0 54 0;
#X connect 53 0 52 0;
#X connect 54 0 56 0;
#X connect 54 0 56 1;
#X connect 56 0 55 0;
