#N canvas 951 175 794 696 10;
#X obj 45 217 vline~;
#X obj 46 324 *~;
#X obj 46 252 *~;
#X obj 159 218 noise~;
#X obj 238 215 noise~;
#X obj 238 306 bp~ 500 12;
#X msg 45 174 1 1 0 \, 0 20 2 \, 1 2 360 \, 0 20 362;
#X obj 158 252 bp~ 2500 12;
#X obj 45 75 inlet;
#X obj 47 351 outlet~;
#X text 180 139 Simple patch to generate push button sound;
#X text 224 54 Seymur Mammadli;
#X obj 48 381 dac~;
#X connect 0 0 2 0;
#X connect 0 0 2 1;
#X connect 1 0 9 0;
#X connect 1 0 12 0;
#X connect 1 0 12 1;
#X connect 2 0 1 0;
#X connect 3 0 7 0;
#X connect 4 0 5 0;
#X connect 5 0 1 1;
#X connect 6 0 0 0;
#X connect 7 0 1 1;
#X connect 8 0 6 0;
