#N canvas 770 112 1102 854 10;
#X msg 11 198 1 1 0 \, 0 20 2;
#X msg 69 225 1 1 5 \, 0 20 6;
#X msg 102 257 1 1 8 \, 0 10 9;
#X obj 11 223 vline~;
#X obj 16 515 *~;
#X obj 51 258 vline~;
#X obj 50 513 *~;
#X obj 92 291 vline~;
#X obj 328 432 *~;
#X obj 185 408 noise~;
#X obj 16 564 *~;
#X obj 51 564 *~, f 4;
#X obj 557 591 *~;
#X obj 122 510 bp~ 7000 12;
#X obj 196 509 bp~ 6000 12;
#X obj 269 511 bp~ 5000 12;
#X obj 82 151 del 45;
#X obj 185 175 del 45;
#X obj 239 176 del 45;
#X obj 313 180 del 45;
#X obj 416 184 del 45;
#X obj 495 107 del 45;
#X obj 49 601 *~ 0.1;
#X obj 46 13 inlet;
#X obj 48 626 outlet~;
#X obj 433 32 bng 15 250 50 0 empty empty empty 17 7 0 10 -262144 -1
-1;
#X obj 62 721 dac~;
#X obj 185 435 hip~ 50;
#X connect 0 0 3 0;
#X connect 1 0 5 0;
#X connect 2 0 7 0;
#X connect 3 0 4 0;
#X connect 3 0 4 1;
#X connect 4 0 10 0;
#X connect 5 0 6 0;
#X connect 5 0 6 1;
#X connect 6 0 11 0;
#X connect 7 0 8 0;
#X connect 7 0 8 1;
#X connect 8 0 12 0;
#X connect 9 0 27 0;
#X connect 10 0 22 0;
#X connect 11 0 22 0;
#X connect 12 0 22 0;
#X connect 13 0 10 1;
#X connect 14 0 11 1;
#X connect 15 0 12 1;
#X connect 16 0 0 0;
#X connect 16 0 1 0;
#X connect 16 0 2 0;
#X connect 17 0 16 0;
#X connect 18 0 17 0;
#X connect 19 0 18 0;
#X connect 20 0 19 0;
#X connect 21 0 20 0;
#X connect 22 0 24 0;
#X connect 22 0 26 1;
#X connect 22 0 26 0;
#X connect 23 0 25 0;
#X connect 25 0 16 0;
#X connect 25 0 17 0;
#X connect 25 0 18 0;
#X connect 25 0 19 0;
#X connect 25 0 20 0;
#X connect 25 0 21 0;
#X connect 27 0 13 0;
#X connect 27 0 14 0;
#X connect 27 0 15 0;
